<svg xmlns="http://www.w3.org/2000/svg" xmlns:xlink="http://www.w3.org/1999/xlink" width="400" zoomAndPan="magnify" viewBox="0 0 300 299.999988" height="400" preserveAspectRatio="xMidYMid meet" version="1.0"><defs><clipPath id="d00a597239"><path d="M 52.5 0 L 247.5 0 C 261.425781 0 274.777344 5.53125 284.625 15.375 C 294.46875 25.222656 300 38.574219 300 52.5 L 300 247.5 C 300 261.425781 294.46875 274.777344 284.625 284.625 C 274.777344 294.46875 261.425781 300 247.5 300 L 52.5 300 C 38.574219 300 25.222656 294.46875 15.375 284.625 C 5.53125 274.777344 0 261.425781 0 247.5 L 0 52.5 C 0 38.574219 5.53125 25.222656 15.375 15.375 C 25.222656 5.53125 38.574219 0 52.5 0 Z M 52.5 0 " clip-rule="nonzero"/></clipPath><clipPath id="b49791714c"><path d="M 0 0 L 300 0 L 300 300 L 0 300 Z M 0 0 " clip-rule="nonzero"/></clipPath><clipPath id="653da91b30"><path d="M 52.5 0 L 247.5 0 C 261.425781 0 274.777344 5.53125 284.625 15.375 C 294.46875 25.222656 300 38.574219 300 52.5 L 300 247.5 C 300 261.425781 294.46875 274.777344 284.625 284.625 C 274.777344 294.46875 261.425781 300 247.5 300 L 52.5 300 C 38.574219 300 25.222656 294.46875 15.375 284.625 C 5.53125 274.777344 0 261.425781 0 247.5 L 0 52.5 C 0 38.574219 5.53125 25.222656 15.375 15.375 C 25.222656 5.53125 38.574219 0 52.5 0 Z M 52.5 0 " clip-rule="nonzero"/></clipPath><clipPath id="ca654362a2"><rect x="0" width="300" y="0" height="300"/></clipPath><clipPath id="096407ded8"><path d="M 98 83 L 197 83 L 197 228.074219 L 98 228.074219 Z M 98 83 " clip-rule="nonzero"/></clipPath><clipPath id="0b97efc95a"><path d="M 154 72.074219 L 203 72.074219 L 203 144 L 154 144 Z M 154 72.074219 " clip-rule="nonzero"/></clipPath></defs><g clip-path="url(#d00a597239)"><g transform="matrix(1, 0, 0, 1, 0, 0)"><g clip-path="url(#ca654362a2)"><g clip-path="url(#b49791714c)"><g clip-path="url(#653da91b30)"><rect x="-66" width="432" fill="#ffffff" height="431.999983" y="-65.999997" fill-opacity="1"/></g></g></g></g></g><g clip-path="url(#096407ded8)"><path fill="#000000" d="M 147.640625 228.070312 C 122.542969 228.070312 95.835938 207.1875 99.03125 172.476562 C 100.820312 153.183594 122.054688 118.734375 145.738281 84.023438 C 146.628906 82.691406 148.617188 82.691406 149.511719 84.023438 C 151.992188 87.667969 154.46875 91.3125 156.859375 94.929688 C 151.816406 104.039062 149.285156 110.691406 148.820312 115.84375 C 147.984375 124.953125 150.695312 133.429688 156.398438 139.734375 C 162.015625 145.925781 170.316406 149.597656 178.554688 149.597656 C 181.839844 149.597656 185.097656 149.019531 188.234375 147.949219 C 192.730469 157.496094 195.613281 165.882812 196.214844 172.480469 C 199.417969 207.1875 172.707031 228.070312 147.640625 228.070312 Z M 147.640625 228.070312 " fill-opacity="1" fill-rule="nonzero"/></g><g clip-path="url(#0b97efc95a)"><path fill="#000000" d="M 185.671875 142.683594 C 183.339844 143.433594 180.949219 143.8125 178.554688 143.8125 C 166.167969 143.8125 153 133.515625 154.582031 116.386719 C 154.957031 112.25 157.144531 106.699219 160.457031 100.363281 C 164.75 92.0625 171.003906 82.402344 177.632812 72.710938 C 178.066406 72.074219 179.042969 72.074219 179.503906 72.710938 C 191.171875 89.835938 201.660156 106.84375 202.550781 116.386719 C 203.824219 130.214844 195.46875 139.617188 185.671875 142.683594 Z M 185.671875 142.683594 " fill-opacity="1" fill-rule="nonzero"/></g><path stroke-linecap="round" transform="matrix(-0.514123, -0.546056, 0.546056, -0.514123, 139.297552, 233.279352)" fill="none" stroke-linejoin="miter" d="M 2.917382 19.463439 C 31.422519 -3.844897 59.926728 -3.819151 88.433581 19.536886 " stroke="#ffffff" stroke-width="4" stroke-opacity="1" stroke-miterlimit="4"/><path stroke-linecap="round" transform="matrix(-0.468988, -0.585277, 0.585277, -0.468988, 173.353146, 145.784095)" fill="none" stroke-linejoin="miter" d="M 1.488856 11.074796 C 15.573138 -2.38721 29.652348 -2.35808 43.737064 11.157316 " stroke="#ffffff" stroke-width="2" stroke-opacity="1" stroke-miterlimit="4"/></svg>