<svg xmlns="http://www.w3.org/2000/svg" xmlns:xlink="http://www.w3.org/1999/xlink" width="700" zoomAndPan="magnify" viewBox="0 0 525 165.000002" height="220" preserveAspectRatio="xMidYMid meet" version="1.0"><defs><g/><clipPath id="8c20d0ae17"><path d="M 1.582031 0 L 492 0 L 492 164.007812 L 1.582031 164.007812 Z M 1.582031 0 " clip-rule="nonzero"/></clipPath><clipPath id="c5421a5915"><rect x="0" width="491" y="0" height="165"/></clipPath></defs><g clip-path="url(#8c20d0ae17)"><g transform="matrix(1, 0, 0, 1, 1, 0.000000000000012869)"><g clip-path="url(#c5421a5915)"><g fill="#1a1a1a" fill-opacity="1"><g transform="translate(0.407323, 145.988558)"><g><path d="M 119.96875 1.921875 L 99.4375 1.921875 C 65.90625 1.921875 42.289062 -2.8125 28.59375 -12.28125 C 14.90625 -21.75 8.0625 -38.640625 8.0625 -62.953125 L 8.0625 -71.40625 C 8.0625 -95.71875 14.90625 -112.609375 28.59375 -122.078125 C 42.289062 -131.546875 65.90625 -136.28125 99.4375 -136.28125 L 119.96875 -136.28125 C 153.5 -136.28125 177.140625 -131.546875 190.890625 -122.078125 C 204.648438 -112.609375 211.53125 -95.71875 211.53125 -71.40625 L 211.53125 -62.953125 C 211.53125 -38.640625 204.648438 -21.75 190.890625 -12.28125 C 177.140625 -2.8125 153.5 1.921875 119.96875 1.921875 Z M 106.53125 -31.484375 L 112.875 -31.484375 C 127.207031 -31.484375 137.988281 -32.632812 145.21875 -34.9375 C 152.445312 -37.238281 157.210938 -40.597656 159.515625 -45.015625 C 161.816406 -49.429688 162.96875 -56.050781 162.96875 -64.875 L 162.96875 -69.296875 C 162.96875 -75.953125 162.390625 -81.226562 161.234375 -85.125 C 160.085938 -89.03125 157.722656 -92.421875 154.140625 -95.296875 C 150.554688 -98.179688 145.5 -100.164062 138.96875 -101.25 C 132.445312 -102.34375 123.75 -102.890625 112.875 -102.890625 L 106.53125 -102.890625 C 97.832031 -102.890625 90.539062 -102.503906 84.65625 -101.734375 C 78.769531 -100.960938 73.96875 -99.84375 70.25 -98.375 C 66.539062 -96.90625 63.691406 -94.726562 61.703125 -91.84375 C 59.722656 -88.96875 58.378906 -85.832031 57.671875 -82.4375 C 56.972656 -79.050781 56.625 -74.671875 56.625 -69.296875 L 56.625 -64.875 C 56.625 -56.050781 57.742188 -49.429688 59.984375 -45.015625 C 62.222656 -40.597656 66.957031 -37.238281 74.1875 -34.9375 C 81.414062 -32.632812 92.195312 -31.484375 106.53125 -31.484375 Z M 106.53125 -31.484375 "/></g></g></g><g fill="#1a1a1a" fill-opacity="1"><g transform="translate(220.007359, 145.988558)"><g><path d="M 59.890625 -134.375 L 59.890625 0 L 12.28125 0 L 12.28125 -134.375 Z M 59.890625 -134.375 "/></g></g></g><g fill="#1a1a1a" fill-opacity="1"><g transform="translate(292.375529, 145.988558)"><g><path d="M 164.703125 -35.890625 L 164.703125 0 L 12.28125 0 L 12.28125 -134.375 L 59.890625 -134.375 L 59.890625 -35.890625 Z M 164.703125 -35.890625 "/></g></g></g></g></g></g></svg>